<svg width="62" height="50" viewBox="0 0 62 50" fill="none" xmlns="http://www.w3.org/2000/svg">
<path d="M14.9104 29.0382H7.08168L5.82673 32.7434H0.478088L8.06774 11.7672H13.9841L21.5738 32.7434H16.1654L14.9104 29.0382ZM13.5957 25.0939L10.996 17.4146L8.42633 25.0939H13.5957Z" fill="white"/>
<path fill-rule="evenodd" clip-rule="evenodd" d="M25.1109 38.1198C25.5404 38.0158 25.9442 37.8669 26.3223 37.6732C27.159 37.2549 27.8661 36.6971 28.4438 35.9999V46.0398H33.5534V21.4182H28.4438V23.3306C27.9259 22.6732 27.2486 22.1652 26.412 21.8067C25.5753 21.4282 24.6291 21.2389 23.5733 21.2389C22.1988 21.2389 20.9239 21.6075 19.7486 22.3445C19.6539 22.4033 19.5607 22.4641 19.469 22.5268L21.4529 28.0098C21.5208 27.8356 21.6 27.6702 21.6908 27.5138C22.0494 26.8963 22.5076 26.4381 23.0654 26.1393C23.6231 25.8206 24.2008 25.6612 24.7984 25.6612C25.416 25.6612 26.0036 25.8206 26.5614 26.1393C27.1192 26.4381 27.5673 26.8963 27.906 27.5138C28.2646 28.1115 28.4438 28.8585 28.4438 29.7549C28.4438 30.6513 28.2646 31.4083 27.906 32.0258C27.5673 32.6433 27.1092 33.1115 26.5315 33.4302C25.9737 33.729 25.3961 33.8784 24.7984 33.8784C24.3492 33.8784 23.9114 33.794 23.4847 33.6252L25.1109 38.1198Z" fill="white"/>
<path d="M38.0506 19.6467C37.1542 19.6467 36.4172 19.3877 35.8395 18.8698C35.2817 18.3319 35.0028 17.6746 35.0028 16.8977C35.0028 16.1009 35.2817 15.4435 35.8395 14.9256C36.4172 14.3877 37.1542 14.1188 38.0506 14.1188C38.9271 14.1188 39.6443 14.3877 40.202 14.9256C40.7797 15.4435 41.0686 16.1009 41.0686 16.8977C41.0686 17.6746 40.7797 18.3319 40.202 18.8698C39.6443 19.3877 38.9271 19.6467 38.0506 19.6467ZM40.5905 21.3798V38.0531H35.4809V21.3798H40.5905Z" fill="white"/>
<path d="M47.6699 23.7403C48.1482 22.9634 48.8354 22.3359 49.7319 21.8578C50.6283 21.3798 51.654 21.1407 52.8097 21.1407C54.1841 21.1407 55.4292 21.4893 56.5447 22.1866C57.6602 22.8838 58.5367 23.8798 59.1743 25.1746C59.8314 26.4694 60.1602 27.9734 60.1602 29.6865C60.1602 31.3997 59.8314 32.9136 59.1743 34.2284C58.5367 35.5232 57.6602 36.5292 56.5447 37.2463C55.4292 37.9435 54.1841 38.2921 52.8097 38.2921C51.6341 38.2921 50.6084 38.0631 49.7319 37.6049C48.8553 37.1268 48.1681 36.4993 47.6699 35.7224V38.0531H42.5606V15.9415H47.6699V23.7403ZM54.9611 29.6865C54.9611 28.4116 54.6022 27.4156 53.8854 26.6985C53.1881 25.9615 52.3217 25.5929 51.2858 25.5929C50.2699 25.5929 49.4031 25.9615 48.6863 26.6985C47.9889 27.4355 47.6403 28.4415 47.6403 29.7164C47.6403 30.9913 47.9889 31.9973 48.6863 32.7344C49.4031 33.4714 50.2699 33.84 51.2858 33.84C52.3018 33.84 53.1681 33.4714 53.8854 32.7344C54.6022 31.9774 54.9611 30.9615 54.9611 29.6865Z" fill="white"/>
</svg>
