<svg width="104" height="151" viewBox="0 0 104 151" fill="none" xmlns="http://www.w3.org/2000/svg">
<g clip-path="url(#clip0_968_168)">
<path d="M103.577 42.051L103.502 41.9953L103.5 41.9939C103.403 41.9216 103.292 41.8692 103.174 41.8397C103.057 41.8102 102.935 41.8041 102.815 41.8218C102.695 41.8395 102.58 41.8807 102.476 41.9429C102.372 42.0052 102.281 42.0873 102.209 42.1846L86.8528 62.8597H85.1634V62.4628C85.1634 62.3649 85.1245 62.271 85.0553 62.2017C84.986 62.1325 84.8921 62.0936 84.7942 62.0936H83.7862C83.6883 62.0936 83.5944 62.1325 83.5252 62.2017C83.4559 62.271 83.417 62.3649 83.417 62.4628V62.8597H82.8336V62.4628C82.8336 62.3649 82.7947 62.271 82.7255 62.2017C82.6562 62.1325 82.5624 62.0936 82.4644 62.0936H81.4565C81.3586 62.0936 81.2646 62.1325 81.1954 62.2017C81.1262 62.271 81.0873 62.3649 81.0873 62.4628V62.8597H80.5058V62.4628C80.5058 62.3649 80.4669 62.271 80.3976 62.2017C80.3284 62.1325 80.2345 62.0936 80.1365 62.0936H79.1286C79.0307 62.0936 78.9368 62.1325 78.8675 62.2017C78.7983 62.271 78.7594 62.3649 78.7594 62.4628V62.8597H78.176V62.4628C78.176 62.3649 78.1371 62.271 78.0679 62.2017C77.9986 62.1325 77.9047 62.0936 77.8068 62.0936H76.7988C76.7009 62.0936 76.607 62.1325 76.5378 62.2017C76.4685 62.271 76.4296 62.3649 76.4296 62.4628V62.8597H75.8481V62.4628C75.8481 62.3649 75.8092 62.271 75.74 62.2017C75.6707 62.1325 75.5768 62.0936 75.4789 62.0936H74.4709C74.4225 62.0936 74.3745 62.1031 74.3297 62.1217C74.2849 62.1402 74.2441 62.1674 74.2099 62.2017C74.1756 62.236 74.1484 62.2767 74.1298 62.3215C74.1113 62.3663 74.1017 62.4143 74.1017 62.4628V62.8597H73.5184V62.4628C73.5184 62.3649 73.4795 62.271 73.4102 62.2017C73.341 62.1325 73.2471 62.0936 73.1491 62.0936H72.1412C72.0433 62.0936 71.9494 62.1325 71.8801 62.2017C71.8109 62.271 71.772 62.3649 71.772 62.4628V62.8597H71.1886V62.4628C71.1886 62.3649 71.1497 62.271 71.0804 62.2017C71.0112 62.1325 70.9173 62.0936 70.8194 62.0936H69.8114C69.7135 62.0936 69.6196 62.1325 69.5504 62.2017C69.4811 62.271 69.4422 62.3649 69.4422 62.4628V62.8597H68.8607V62.4628C68.8607 62.3649 68.8218 62.271 68.7526 62.2017C68.6833 62.1325 68.5894 62.0936 68.4915 62.0936H67.4835C67.3856 62.0936 67.2917 62.1325 67.2225 62.2017C67.1532 62.271 67.1143 62.3649 67.1143 62.4628V62.8597H66.5309V62.4628C66.5309 62.3649 66.492 62.271 66.4228 62.2017C66.3536 62.1325 66.2597 62.0936 66.1617 62.0936H65.1538C65.0559 62.0936 64.9619 62.1325 64.8927 62.2017C64.8235 62.271 64.7846 62.3649 64.7846 62.4628V62.8597H64.2031V62.4628C64.2031 62.3649 64.1642 62.271 64.0949 62.2017C64.0257 62.1325 63.9318 62.0936 63.8339 62.0936H62.8259C62.728 62.0936 62.6341 62.1325 62.5648 62.2017C62.4956 62.271 62.4567 62.3649 62.4567 62.4628V62.8597H61.7256C61.6044 62.8597 61.4844 62.8836 61.3724 62.93C61.2604 62.9764 61.1587 63.0444 61.073 63.1301C60.9872 63.2158 60.9193 63.3175 60.8729 63.4295C60.8265 63.5415 60.8026 63.6615 60.8026 63.7828V64.6633C60.8026 64.7845 60.8265 64.9046 60.8729 65.0166C60.9193 65.1286 60.9872 65.2303 61.073 65.316C61.1587 65.4017 61.2604 65.4697 61.3724 65.5161C61.4844 65.5625 61.6044 65.5864 61.7256 65.5864H86.6996C87.0159 65.5863 87.3225 65.4773 87.5678 65.2776C87.8131 65.0779 87.9821 64.7998 88.0463 64.4901L88.0558 64.4972L103.766 43.3442L103.768 43.3424C103.914 43.1458 103.976 42.8994 103.94 42.6572C103.904 42.415 103.774 42.197 103.577 42.051Z" fill="#3F3D56"/>
<path d="M6.5304 142.167L9.63248 143.754L17.2316 132.545L12.6535 130.202L6.5304 142.167Z" fill="#FFB7B7"/>
<path d="M6.25734 140.749L12.3665 143.875L12.3667 143.876C13.3992 144.404 14.1795 145.321 14.5359 146.425C14.8923 147.528 14.7958 148.729 14.2674 149.761L14.2026 149.888L4.20026 144.769L6.25734 140.749Z" fill="#2F2E41"/>
<path d="M42.3577 146.51H45.8426L47.5003 133.069H42.3572L42.3577 146.51Z" fill="#FFB7B7"/>
<path d="M41.4689 145.372L48.3315 145.372H48.3318C49.4917 145.372 50.604 145.833 51.4242 146.653C52.2443 147.473 52.7051 148.585 52.7052 149.745V149.887L41.4691 149.888L41.4689 145.372Z" fill="#2F2E41"/>
<path d="M26.0578 36.8751C26.0578 36.8751 23.7243 35.0873 23.7243 39.4543L23.3558 53.8852L27.4702 67.5179L29.8651 63.0965L28.8826 53.5168L26.0578 36.8751Z" fill="#2F2E41"/>
<path d="M51.0196 76.3463C51.0196 76.3463 53.7255 89.5243 50.298 100.339L48.4038 141.92L41.4586 141.379L39.0232 110.531L36.6781 95.1977L31.8074 109.178L15.7521 138.763L8.35583 132.991C8.35583 132.991 16.5521 110.627 22.6071 105.931L25.644 71.3434L51.0196 76.3463Z" fill="#2F2E41"/>
<path d="M49.7356 15.1357C51.8335 11.298 50.4231 6.48637 46.5855 4.38854C42.7478 2.29071 37.9362 3.7011 35.8383 7.53873C33.7405 11.3764 35.1509 16.188 38.9885 18.2858C42.8262 20.3837 47.6378 18.9733 49.7356 15.1357Z" fill="#FFB7B7"/>
<path d="M42.2266 13.0168C43.1759 13.1403 43.892 12.1691 44.2241 11.2712C44.5562 10.3734 44.8093 9.32811 45.6346 8.84312C46.7622 8.18051 48.2049 8.97745 49.4944 8.75883C50.9506 8.51195 51.8974 6.96865 51.9716 5.49352C52.0458 4.01839 51.4588 2.59962 50.8828 1.23957L50.6817 2.92981C50.7086 2.35694 50.5881 1.78676 50.3316 1.2738C50.0752 0.760837 49.6914 0.322252 49.217 0L49.4762 2.48017C49.421 2.13799 49.2988 1.81008 49.1166 1.51524C48.9344 1.22041 48.6958 0.964454 48.4144 0.762077C48.1331 0.5597 47.8145 0.414879 47.477 0.33593C47.1395 0.25698 46.7898 0.245454 46.4478 0.302013L46.4886 1.77979C44.8067 1.57979 43.1101 1.37951 41.4232 1.53188C39.7363 1.68425 38.0376 2.21798 36.759 3.32894C34.8465 4.99076 34.1481 7.72715 34.3826 10.2499C34.6171 12.7727 35.6584 15.1426 36.7438 17.432C37.0169 18.008 37.3946 18.658 38.0278 18.7314C38.5968 18.7973 39.1174 18.3217 39.2943 17.7769C39.4305 17.218 39.4253 16.6338 39.2789 16.0774C39.1189 15.2271 38.9172 14.3579 39.0676 13.5059C39.2181 12.6538 39.8311 11.8118 40.69 11.7074C41.5489 11.6029 42.4278 12.5847 42.0148 13.3451L42.2266 13.0168Z" fill="#2F2E41"/>
<path d="M51.5096 79.8704L25.0755 78.1649L27.0652 69.9221L51.2252 75.3228L51.5096 79.8704Z" fill="#CBCBCB"/>
<path d="M35.2076 22.1371L36.8656 19.8352C36.8656 19.8352 38.7188 20.465 43.6819 22.9354L44.0326 25.0921L52.6476 78.0801L36.9884 77.4046L32.7242 77.3139L31.3287 74.1857L29.6079 77.2476L25.4437 77.159L21.2065 74.7026L25.3823 61.9297L26.7333 50.2621L24.6454 39.27C24.6454 39.27 22.0181 29.1762 32.1372 23.7337L35.2076 22.1371Z" fill="#2F2E41"/>
<path d="M70.5022 62.2494C70.1187 62.3468 69.7185 62.359 69.3298 62.2851C68.9412 62.2111 68.5734 62.0528 68.2525 61.8214C67.9316 61.5899 67.6654 61.291 67.4725 60.9455C67.2797 60.6 67.1649 60.2164 67.1363 59.8218L57.8461 57.3334L61.5833 54.015L69.8326 56.8868C70.4987 56.8827 71.1432 57.1232 71.6439 57.5625C72.1446 58.0019 72.4667 58.6097 72.5493 59.2707C72.6318 59.9317 72.469 60.6 72.0917 61.149C71.7144 61.698 71.1489 62.0895 70.5022 62.2494Z" fill="#FFB7B7"/>
<path d="M66.3412 60.8445C66.1459 60.9509 65.9303 61.015 65.7085 61.0326C65.4868 61.0502 65.2638 61.0209 65.0541 60.9467L49.7713 55.1462C46.0429 53.8246 42.9215 51.1936 40.9877 47.7428L34.6145 36.3739C34.167 35.8743 33.8224 35.2914 33.6004 34.6585C33.3784 34.0256 33.2834 33.3552 33.3208 32.6855C33.3582 32.0159 33.5273 31.3602 33.8184 30.756C34.1095 30.1517 34.5168 29.6108 35.0172 29.1642C35.5176 28.7176 36.1011 28.3741 36.7344 28.1532C37.3677 27.9324 38.0383 27.8386 38.7079 27.8772C39.3774 27.9158 40.0328 28.0861 40.6365 28.3782C41.2402 28.6704 41.7804 29.0788 42.2261 29.58L53.2571 47.0639L67.1394 55.2029C67.4115 55.3814 67.6222 55.6392 67.743 55.9414C67.8638 56.2435 67.889 56.5755 67.815 56.8924L67.1246 59.8178C67.0505 60.1315 66.8824 60.4151 66.643 60.6309C66.5512 60.7137 66.4499 60.7855 66.3412 60.8445Z" fill="#2F2E41"/>
<line y1="150.5" x2="80" y2="150.5" stroke="#4E4E4E"/>
</g>
<defs>
<clipPath id="clip0_968_168">
<rect width="104" height="151" fill="white"/>
</clipPath>
</defs>
</svg>
