<svg width="11" height="12" viewBox="0 0 11 12" fill="none" xmlns="http://www.w3.org/2000/svg">
<g clip-path="url(#clip0_995_29)">
<path d="M2.35078 10.5H0.173438V3.48984H2.35078V10.5ZM1.26094 2.53359C0.564844 2.53359 0 1.95703 0 1.26094C0 0.926516 0.132848 0.605792 0.36932 0.36932C0.605792 0.132848 0.926516 0 1.26094 0C1.59536 0 1.91608 0.132848 2.15255 0.36932C2.38903 0.605792 2.52187 0.926516 2.52187 1.26094C2.52187 1.95703 1.95703 2.53359 1.26094 2.53359ZM10.4977 10.5H8.325V7.0875C8.325 6.27422 8.30859 5.23125 7.19297 5.23125C6.06094 5.23125 5.8875 6.11484 5.8875 7.02891V10.5H3.7125V3.48984H5.80078V4.44609H5.83125C6.12188 3.89531 6.83203 3.31406 7.89141 3.31406C10.0945 3.31406 10.5 4.76484 10.5 6.64922V10.5H10.4977Z" fill="#2C62BD"/>
</g>
<defs>
<clipPath id="clip0_995_29">
<rect width="10.5" height="12" fill="white"/>
</clipPath>
</defs>
</svg>
