<svg width="22" height="25" viewBox="0 0 22 25" fill="none" xmlns="http://www.w3.org/2000/svg">
<g clip-path="url(#clip0_941_44)">
<path d="M4.89746 21.875H0.361328V7.27051H4.89746V21.875ZM2.62695 5.27832C1.17676 5.27832 0 4.07715 0 2.62695C0 1.93024 0.276767 1.26207 0.769417 0.769417C1.26207 0.276767 1.93024 0 2.62695 0C3.32366 0 3.99184 0.276767 4.48449 0.769417C4.97714 1.26207 5.25391 1.93024 5.25391 2.62695C5.25391 4.07715 4.07715 5.27832 2.62695 5.27832ZM21.8701 21.875H17.3438V14.7656C17.3438 13.0713 17.3096 10.8984 14.9854 10.8984C12.627 10.8984 12.2656 12.7393 12.2656 14.6436V21.875H7.73437V7.27051H12.085V9.2627H12.1484C12.7539 8.11523 14.2334 6.9043 16.4404 6.9043C21.0303 6.9043 21.875 9.92676 21.875 13.8525V21.875H21.8701Z" fill="white"/>
</g>
<defs>
<clipPath id="clip0_941_44">
<rect width="21.875" height="25" fill="white"/>
</clipPath>
</defs>
</svg>
