<svg width="12" height="12" viewBox="0 0 12 12" fill="none" xmlns="http://www.w3.org/2000/svg">
<path d="M10.8125 5.8125C10.8125 8.57392 8.57392 10.8125 5.8125 10.8125C3.05108 10.8125 0.8125 8.57392 0.8125 5.8125C0.8125 3.05108 3.05108 0.8125 5.8125 0.8125C8.57392 0.8125 10.8125 3.05108 10.8125 5.8125Z" fill="white"/>
<path d="M7.46016 4.94063C7.46016 5.42109 7.06875 5.8125 6.58828 5.8125H4.94063V4.06875H6.58828C7.06875 4.06875 7.46016 4.46016 7.46016 4.94063ZM11.625 5.8125C11.625 9.02344 9.02344 11.625 5.8125 11.625C2.60156 11.625 0 9.02344 0 5.8125C0 2.60156 2.60156 0 5.8125 0C9.02344 0 11.625 2.60156 11.625 5.8125ZM8.62266 4.94063C8.62266 3.81797 7.71094 2.90625 6.58828 2.90625H3.77812V8.71875H4.94063V6.975H6.58828C7.71094 6.975 8.62266 6.06328 8.62266 4.94063Z" fill="#FF6154"/>
</svg>
