<svg width="25" height="25" viewBox="0 0 25 25" fill="none" xmlns="http://www.w3.org/2000/svg">
<g clip-path="url(#clip0_941_40)">
<path d="M22.4316 7.40723C22.4463 7.62695 22.4463 7.85156 22.4463 8.07129C22.4463 14.8438 17.29 22.6514 7.86621 22.6514C4.96094 22.6514 2.26563 21.8115 0 20.3516C0.410156 20.4004 0.810547 20.415 1.23535 20.415C3.63281 20.415 5.83496 19.6045 7.59766 18.2275C5.34668 18.1787 3.45703 16.7041 2.80762 14.6729C3.125 14.7217 3.44238 14.751 3.77441 14.751C4.2334 14.751 4.69238 14.6875 5.12207 14.5752C2.77344 14.1016 1.01562 12.0361 1.01562 9.5459V9.48242C1.69922 9.86328 2.49023 10.1025 3.33008 10.1318C1.94824 9.21387 1.04492 7.6416 1.04492 5.86426C1.04492 4.91211 1.29883 4.03809 1.74316 3.27637C4.26758 6.38672 8.05664 8.41797 12.3096 8.6377C12.2314 8.25684 12.1826 7.86133 12.1826 7.46582C12.1826 4.64355 14.4678 2.34375 17.3047 2.34375C18.7793 2.34375 20.1123 2.96387 21.0498 3.95996C22.207 3.74023 23.3203 3.31055 24.3018 2.72461C23.9209 3.91602 23.1104 4.91211 22.0508 5.54687C23.0811 5.43457 24.082 5.15137 25 4.75586C24.3018 5.77148 23.4277 6.6748 22.4316 7.40723Z" fill="white"/>
</g>
<defs>
<clipPath id="clip0_941_40">
<rect width="25" height="25" fill="white"/>
</clipPath>
</defs>
</svg>
